<svg width="36" height="36" viewBox="0 0 36 36" fill="none" xmlns="http://www.w3.org/2000/svg">
<circle cx="18" cy="18" r="18" fill="#ECEFF6"/>
<path d="M10.7419 16.5455H25.2581M25.2581 23.0909H10.7419M25.2581 23.0909V12.1818C25.2581 11.6032 25.0287 11.0482 24.6203 10.639C24.212 10.2299 23.6581 10 23.0806 10H12.9194C12.3419 10 11.788 10.2299 11.3797 10.639C10.9713 11.0482 10.7419 11.6032 10.7419 12.1818V23.0909M25.2581 23.0909V25.2727C25.2581 25.4656 25.1816 25.6506 25.0455 25.787C24.9094 25.9234 24.7248 26 24.5323 26H22.3548C22.1623 26 21.9777 25.9234 21.8416 25.787C21.7055 25.6506 21.629 25.4656 21.629 25.2727V23.0909M10.7419 23.0909V25.2727C10.7419 25.4656 10.8184 25.6506 10.9545 25.787C11.0906 25.9234 11.2752 26 11.4677 26H13.6452C13.8377 26 14.0223 25.9234 14.1584 25.787C14.2945 25.6506 14.371 25.4656 14.371 25.2727V23.0909M27 13.6364V15.8182M9 13.6364V15.8182M15.505 19.8182C15.505 20.1947 15.2004 20.5 14.8246 20.5C14.4488 20.5 14.1442 20.1947 14.1442 19.8182C14.1442 19.4416 14.4488 19.1364 14.8246 19.1364C15.2004 19.1364 15.505 19.4416 15.505 19.8182ZM21.8558 19.8182C21.8558 20.1947 21.5512 20.5 21.1754 20.5C20.7996 20.5 20.495 20.1947 20.495 19.8182C20.495 19.4416 20.7996 19.1364 21.1754 19.1364C21.5512 19.1364 21.8558 19.4416 21.8558 19.8182Z" stroke="#F65421" stroke-width="1.2" stroke-linecap="round" stroke-linejoin="round"/>
</svg>
