<svg width="21" height="14" viewBox="0 0 21 14" fill="none" xmlns="http://www.w3.org/2000/svg">
<path d="M1.29919 12.625C1.92348 11.6651 2.77763 10.8764 3.78409 10.3304C4.79055 9.78435 5.91745 9.49836 7.06248 9.49836C8.20751 9.49836 9.3344 9.78435 10.3409 10.3304C11.3473 10.8764 12.2015 11.6651 12.8258 12.625M19.7008 12.625C19.0766 11.6651 18.2225 10.8764 17.216 10.3306C16.2094 9.78486 15.0824 9.49933 13.9375 9.5C14.5358 9.49947 15.1265 9.36681 15.6676 9.11148C16.2087 8.85615 16.6867 8.48447 17.0674 8.02299C17.4482 7.56151 17.7223 7.02163 17.8703 6.44192C18.0182 5.86221 18.0362 5.25698 17.9231 4.66948C17.81 4.08199 17.5686 3.52672 17.216 3.04337C16.8634 2.56002 16.4084 2.16051 15.8835 1.87339C15.3586 1.58627 14.7768 1.41862 14.1796 1.38244C13.5824 1.34625 12.9846 1.44242 12.4289 1.66406M11.125 5.4375C11.125 7.68116 9.30613 9.5 7.06248 9.5C4.81882 9.5 2.99998 7.68116 2.99998 5.4375C2.99998 3.19384 4.81882 1.375 7.06248 1.375C9.30613 1.375 11.125 3.19384 11.125 5.4375Z" stroke="white" stroke-width="1.2" stroke-linecap="round" stroke-linejoin="round"/>
</svg>
