<svg width="20" height="22" viewBox="0 0 20 22" fill="none" xmlns="http://www.w3.org/2000/svg">
<path d="M19 17.25V18C19 18.7956 18.6839 19.5587 18.1213 20.1213C17.5587 20.6839 16.7956 21 16 21H10.75" stroke="#1E1E1E" stroke-width="1.5" stroke-linecap="round" stroke-linejoin="round"/>
<path d="M19 10.5H16C15.6022 10.5 15.2206 10.658 14.9393 10.9393C14.658 11.2206 14.5 11.6022 14.5 12V15.75C14.5 16.1478 14.658 16.5294 14.9393 16.8107C15.2206 17.092 15.6022 17.25 16 17.25H19V10.5ZM19 10.5C19 9.3181 18.7672 8.14778 18.3149 7.05585C17.8626 5.96392 17.1997 4.97177 16.364 4.13604C15.5282 3.30031 14.5361 2.63738 13.4442 2.18508C12.3522 1.73279 11.1819 1.5 10 1.5C8.8181 1.5 7.64778 1.73279 6.55585 2.18508C5.46392 2.63738 4.47177 3.30031 3.63604 4.13604C2.80031 4.97177 2.13738 5.96392 1.68508 7.05585C1.23279 8.14778 1 9.3181 1 10.5M1 10.5V15.75C1 16.1478 1.15804 16.5294 1.43934 16.8107C1.72064 17.092 2.10218 17.25 2.5 17.25H4C4.39782 17.25 4.77936 17.092 5.06066 16.8107C5.34196 16.5294 5.5 16.1478 5.5 15.75V12C5.5 11.6022 5.34196 11.2206 5.06066 10.9393C4.77936 10.658 4.39782 10.5 4 10.5H1Z" stroke="#1E1E1E" stroke-width="1.5" stroke-linecap="round" stroke-linejoin="round"/>
</svg>
